<?xml version="1.0" encoding="UTF-8" standalone="no"?>
<!-- Created with Inkscape (http://www.inkscape.org/) -->

<svg
   xmlns:dc="http://purl.org/dc/elements/1.1/"
   xmlns:cc="http://creativecommons.org/ns#"
   xmlns:rdf="http://www.w3.org/1999/02/22-rdf-syntax-ns#"
   xmlns:svg="http://www.w3.org/2000/svg"
   xmlns="http://www.w3.org/2000/svg"
   xmlns:sodipodi="http://sodipodi.sourceforge.net/DTD/sodipodi-0.dtd"
   xmlns:inkscape="http://www.inkscape.org/namespaces/inkscape"
   width="50"
   height="50"
   viewBox="0 0 13.229166 13.229167"
   version="1.1"
   id="svg8"
   inkscape:version="0.92.4 (5da689c313, 2019-01-14)"
   sodipodi:docname="loop.svg">
  <defs
     id="defs2" />
  <sodipodi:namedview
     id="base"
     pagecolor="#ffffff"
     bordercolor="#666666"
     borderopacity="1.0"
     inkscape:pageopacity="0.0"
     inkscape:pageshadow="2"
     inkscape:zoom="1.9883842"
     inkscape:cx="-43.183876"
     inkscape:cy="121.08314"
     inkscape:document-units="px"
     inkscape:current-layer="layer1"
     showgrid="true"
     inkscape:window-width="1920"
     inkscape:window-height="1051"
     inkscape:window-x="-9"
     inkscape:window-y="-9"
     inkscape:window-maximized="1"
     units="px">
    <inkscape:grid
       type="xygrid"
       id="grid972"
       spacingx="13.229167"
       spacingy="13.229167" />
  </sodipodi:namedview>
  <metadata
     id="metadata5">
    <rdf:RDF>
      <cc:Work
         rdf:about="">
        <dc:format>image/svg+xml</dc:format>
        <dc:type
           rdf:resource="http://purl.org/dc/dcmitype/StillImage" />
        <dc:title />
      </cc:Work>
    </rdf:RDF>
  </metadata>
  <g
     inkscape:label="Layer 1"
     inkscape:groupmode="layer"
     id="layer1"
     transform="translate(0,-283.7708)">
    <g
       transform="matrix(0.22048609,0,0,0.22048608,148.70424,152.93539)"
       id="g1111">
      <rect
         y="593.39532"
         x="-674.43817"
         height="60"
         width="60"
         id="rect815-4-39-8-9-9-1-4"
         style="opacity:1;fill:none;fill-opacity:1;stroke:none;stroke-width:18.55260468;stroke-linecap:round;stroke-linejoin:miter;stroke-miterlimit:4;stroke-dasharray:none;stroke-dashoffset:0;stroke-opacity:1;paint-order:normal" />
      <path
         sodipodi:nodetypes="cccccccccccccccccccccccccccccccccc"
         inkscape:connector-curvature="0"
         id="rect815-0-0-09-4-0-9"
         d="m -654.43882,603.39554 c -5.52299,6e-5 -10.00015,4.47745 -9.99991,10.00043 v 4.9992 h -4.9992 l 9.99991,9.9999 9.99993,-9.9999 h -5.00023 v -1.99988 c 2e-5,-1.65689 1.34336,-3 3.00035,-2.99982 h 13.99966 c 1.65667,3e-5 2.9997,1.34305 2.99982,2.99982 v 3.46437 l 4.99969,-4.99969 5.00021,5.00022 v -6.46472 c -4e-5,-5.52299 -4.47744,-10.00017 -10.00043,-9.99993 z m 25.00052,15.00013 -9.99989,9.9999 h 4.9997 v 1.99988 c -3e-5,1.65668 -1.34306,2.9997 -2.99982,2.99982 h -13.99966 c -1.6569,2.6e-4 -3.00024,-1.34284 -3.00035,-2.99982 v -3.4649 l -5.0002,5.00023 -5.00021,-5.00023 v 6.46472 c 6e-5,5.52296 4.47744,10.00012 10.00041,9.9999 h 19.99983 c 5.52296,-6e-5 10.00012,-4.47744 9.9999,-10.0004 v -4.9992 h 5.00019 z"
         style="opacity:1;fill:#000000;fill-opacity:1;stroke:none;stroke-width:12.36840439;stroke-linecap:round;stroke-linejoin:miter;stroke-miterlimit:4;stroke-dasharray:none;stroke-dashoffset:0;stroke-opacity:1;paint-order:normal" />
    </g>
  </g>
</svg>
