<?xml version="1.0" encoding="UTF-8" standalone="no"?>
<!-- Created with Inkscape (http://www.inkscape.org/) -->

<svg
   xmlns:dc="http://purl.org/dc/elements/1.1/"
   xmlns:cc="http://creativecommons.org/ns#"
   xmlns:rdf="http://www.w3.org/1999/02/22-rdf-syntax-ns#"
   xmlns:svg="http://www.w3.org/2000/svg"
   xmlns="http://www.w3.org/2000/svg"
   xmlns:sodipodi="http://sodipodi.sourceforge.net/DTD/sodipodi-0.dtd"
   xmlns:inkscape="http://www.inkscape.org/namespaces/inkscape"
   width="50"
   height="50"
   viewBox="0 0 13.229166 13.229167"
   version="1.1"
   id="svg8"
   inkscape:version="0.92.4 (5da689c313, 2019-01-14)"
   sodipodi:docname="pause.svg">
  <defs
     id="defs2" />
  <sodipodi:namedview
     id="base"
     pagecolor="#ffffff"
     bordercolor="#666666"
     borderopacity="1.0"
     inkscape:pageopacity="0.0"
     inkscape:pageshadow="2"
     inkscape:zoom="1.9883842"
     inkscape:cx="-43.183876"
     inkscape:cy="121.08314"
     inkscape:document-units="px"
     inkscape:current-layer="layer1"
     showgrid="true"
     inkscape:window-width="1920"
     inkscape:window-height="1051"
     inkscape:window-x="-9"
     inkscape:window-y="-9"
     inkscape:window-maximized="1"
     units="px">
    <inkscape:grid
       type="xygrid"
       id="grid972"
       spacingx="13.229167"
       spacingy="13.229167" />
  </sodipodi:namedview>
  <metadata
     id="metadata5">
    <rdf:RDF>
      <cc:Work
         rdf:about="">
        <dc:format>image/svg+xml</dc:format>
        <dc:type
           rdf:resource="http://purl.org/dc/dcmitype/StillImage" />
        <dc:title />
      </cc:Work>
    </rdf:RDF>
  </metadata>
  <g
     inkscape:label="Layer 1"
     inkscape:groupmode="layer"
     id="layer1"
     transform="translate(0,-283.7708)">
    <g
       transform="matrix(0.22048609,0,0,0.22048608,103.82152,153.35045)"
       id="g1119">
      <rect
         y="591.51282"
         x="-470.87558"
         height="60"
         width="60"
         id="rect815-4-39-8-9-9"
         style="opacity:1;fill:none;fill-opacity:1;stroke:none;stroke-width:18.55260468;stroke-linecap:round;stroke-linejoin:miter;stroke-miterlimit:4;stroke-dasharray:none;stroke-dashoffset:0;stroke-opacity:1;paint-order:normal" />
      <path
         inkscape:connector-curvature="0"
         id="path2281-8"
         d="m -453.37535,601.51302 a 2.5,2.5 0 0 0 -2.50011,2.49959 v 34.99993 a 2.5,2.5 0 0 0 2.50011,2.50011 h 4.9997 a 2.5,2.5 0 0 0 2.50009,-2.50011 v -34.99993 a 2.5,2.5 0 0 0 -2.50009,-2.49959 z m 19.99979,0 a 2.5,2.5 0 0 0 -2.5001,2.49959 v 34.99993 a 2.5,2.5 0 0 0 2.5001,2.50011 h 4.9997 a 2.5,2.5 0 0 0 2.50013,-2.50011 v -34.99993 a 2.5,2.5 0 0 0 -2.50013,-2.49959 z"
         style="opacity:1;fill:#000000;fill-opacity:1;stroke:none;stroke-width:1.75843358;stroke-linecap:round;stroke-linejoin:miter;stroke-miterlimit:4;stroke-dasharray:none;stroke-dashoffset:0;stroke-opacity:1;paint-order:normal" />
    </g>
  </g>
</svg>
