<?xml version="1.0" encoding="UTF-8" standalone="no"?>
<!-- Created with Inkscape (http://www.inkscape.org/) -->

<svg
   xmlns:dc="http://purl.org/dc/elements/1.1/"
   xmlns:cc="http://creativecommons.org/ns#"
   xmlns:rdf="http://www.w3.org/1999/02/22-rdf-syntax-ns#"
   xmlns:svg="http://www.w3.org/2000/svg"
   xmlns="http://www.w3.org/2000/svg"
   xmlns:sodipodi="http://sodipodi.sourceforge.net/DTD/sodipodi-0.dtd"
   xmlns:inkscape="http://www.inkscape.org/namespaces/inkscape"
   width="50"
   height="50"
   viewBox="0 0 13.229166 13.229167"
   version="1.1"
   id="svg8"
   inkscape:version="0.92.4 (5da689c313, 2019-01-14)"
   sodipodi:docname="restart.svg">
  <defs
     id="defs2" />
  <sodipodi:namedview
     id="base"
     pagecolor="#ffffff"
     bordercolor="#666666"
     borderopacity="1.0"
     inkscape:pageopacity="0.0"
     inkscape:pageshadow="2"
     inkscape:zoom="1.9883842"
     inkscape:cx="-43.183876"
     inkscape:cy="121.08314"
     inkscape:document-units="px"
     inkscape:current-layer="layer1"
     showgrid="true"
     inkscape:window-width="1920"
     inkscape:window-height="1051"
     inkscape:window-x="-9"
     inkscape:window-y="-9"
     inkscape:window-maximized="1"
     units="px">
    <inkscape:grid
       type="xygrid"
       id="grid972"
       spacingx="13.229167"
       spacingy="13.229167" />
  </sodipodi:namedview>
  <metadata
     id="metadata5">
    <rdf:RDF>
      <cc:Work
         rdf:about="">
        <dc:format>image/svg+xml</dc:format>
        <dc:type
           rdf:resource="http://purl.org/dc/dcmitype/StillImage" />
        <dc:title />
      </cc:Work>
    </rdf:RDF>
  </metadata>
  <g
     inkscape:label="Layer 1"
     inkscape:groupmode="layer"
     id="layer1"
     transform="translate(0,-283.7708)">
    <g
       transform="matrix(0.22048611,0,0,0.22048611,191.17343,157.47234)"
       id="g1103">
      <rect
         y="572.81818"
         x="-867.05426"
         height="60"
         width="60"
         id="rect815-4-39-8-9-3"
         style="opacity:1;fill:none;fill-opacity:1;stroke:none;stroke-width:18.55260468;stroke-linecap:round;stroke-linejoin:miter;stroke-miterlimit:4;stroke-dasharray:none;stroke-dashoffset:0;stroke-opacity:1;paint-order:normal" />
      <path
         inkscape:connector-curvature="0"
         d="m -838.91563,582.8182 -0.79902,0.34362 -15.96362,16.84815 -0.90462,1.16963 -0.35305,0.80158 -0.11822,0.55204 v 0.56997 l 0.11822,0.55203 0.35305,0.80159 0.90462,1.16962 15.96362,16.84872 0.79902,0.34305 0.87162,-0.12187 0.6357,-0.64488 0.35415,-0.98097 v -36.50455 l -0.35415,-0.98094 -0.6357,-0.64491 z m 14.36147,1.8e-4 a 2.5,2.5 0 0 0 -2.50009,2.4996 v 34.99994 a 2.5,2.5 0 0 0 2.50009,2.5001 h 4.9997 a 2.5,2.5 0 0 0 2.5001,-2.5001 v -34.99994 a 2.5,2.5 0 0 0 -2.5001,-2.4996 z"
         style="opacity:1;fill:#000000;fill-opacity:1;stroke:none;stroke-width:13.52238083;stroke-linecap:round;stroke-linejoin:miter;stroke-miterlimit:4;stroke-dasharray:none;stroke-dashoffset:0;stroke-opacity:1;paint-order:normal"
         id="rect815-0-9-9-8-4" />
    </g>
  </g>
</svg>
