<svg viewBox="0 0 1264 1264" width="1264" height="1264" x="0" y="0" xmlns="http://www.w3.org/2000/svg"><defs><pattern id="pattern" x="0" y="0" width="8" height="8" patternUnits="userSpaceOnUse"><polygon points="0,4 0,8 8,0 4,0" fill="#ffffff"></polygon><polygon points="4,8 8,8 8,4" fill="#ffffff"></polygon></pattern><mask id="grating" x="0" y="0" width="1" height="1"><rect x="0" y="0" width="100%" height="100%" fill="url(#pattern)"></rect></mask></defs><g id="horizStripes"><rect fill="#202060" height="80" width="100%" x="0" y="0"></rect><rect fill="#101010" height="16" width="100%" x="0" y="80"></rect><rect fill="#202060" height="16" width="100%" x="0" y="96"></rect><rect fill="#101010" height="16" width="100%" x="0" y="112"></rect><rect fill="#202060" height="80" width="100%" x="0" y="128"></rect><rect fill="#101010" height="72" width="100%" x="0" y="208"></rect><rect fill="#006818" height="88" width="100%" x="0" y="280"></rect><rect fill="#101010" height="24" width="100%" x="0" y="368"></rect><rect fill="#006818" height="88" width="100%" x="0" y="392"></rect><rect fill="#101010" height="80" width="100%" x="0" y="480"></rect><rect fill="#FFFFFF" height="24" width="100%" x="0" y="560"></rect><rect fill="#202060" height="32" width="100%" x="0" y="584"></rect><rect fill="#FFFFFF" height="120" width="100%" x="0" y="616"></rect><rect fill="#202060" height="16" width="100%" x="0" y="736"></rect><rect fill="#FFFFFF" height="32" width="100%" x="0" y="752"></rect><rect fill="#202060" height="16" width="100%" x="0" y="784"></rect><rect fill="#FFFFFF" height="120" width="100%" x="0" y="800"></rect><rect fill="#202060" height="32" width="100%" x="0" y="920"></rect><rect fill="#FFFFFF" height="24" width="100%" x="0" y="952"></rect><rect fill="#101010" height="80" width="100%" x="0" y="976"></rect><rect fill="#202060" height="80" width="100%" x="0" y="1056"></rect><rect fill="#101010" height="16" width="100%" x="0" y="1136"></rect><rect fill="#202060" height="16" width="100%" x="0" y="1152"></rect><rect fill="#101010" height="16" width="100%" x="0" y="1168"></rect><rect fill="#202060" height="80" width="100%" x="0" y="1184"></rect></g><g id="vertStripes" mask="url(#grating)"><rect fill="#202060" height="100%" width="80" x="0" y="0"></rect><rect fill="#101010" height="100%" width="16" x="80" y="0"></rect><rect fill="#202060" height="100%" width="16" x="96" y="0"></rect><rect fill="#101010" height="100%" width="16" x="112" y="0"></rect><rect fill="#202060" height="100%" width="80" x="128" y="0"></rect><rect fill="#101010" height="100%" width="72" x="208" y="0"></rect><rect fill="#006818" height="100%" width="88" x="280" y="0"></rect><rect fill="#101010" height="100%" width="24" x="368" y="0"></rect><rect fill="#006818" height="100%" width="88" x="392" y="0"></rect><rect fill="#101010" height="100%" width="80" x="480" y="0"></rect><rect fill="#FFFFFF" height="100%" width="24" x="560" y="0"></rect><rect fill="#202060" height="100%" width="32" x="584" y="0"></rect><rect fill="#FFFFFF" height="100%" width="120" x="616" y="0"></rect><rect fill="#202060" height="100%" width="16" x="736" y="0"></rect><rect fill="#FFFFFF" height="100%" width="32" x="752" y="0"></rect><rect fill="#202060" height="100%" width="16" x="784" y="0"></rect><rect fill="#FFFFFF" height="100%" width="120" x="800" y="0"></rect><rect fill="#202060" height="100%" width="32" x="920" y="0"></rect><rect fill="#FFFFFF" height="100%" width="24" x="952" y="0"></rect><rect fill="#101010" height="100%" width="80" x="976" y="0"></rect><rect fill="#202060" height="100%" width="80" x="1056" y="0"></rect><rect fill="#101010" height="100%" width="16" x="1136" y="0"></rect><rect fill="#202060" height="100%" width="16" x="1152" y="0"></rect><rect fill="#101010" height="100%" width="16" x="1168" y="0"></rect><rect fill="#202060" height="100%" width="80" x="1184" y="0"></rect></g></svg>