<?xml version="1.0" encoding="UTF-8" standalone="no"?>
<svg
   xmlns:dc="http://purl.org/dc/elements/1.1/"
   xmlns:cc="http://creativecommons.org/ns#"
   xmlns:rdf="http://www.w3.org/1999/02/22-rdf-syntax-ns#"
   xmlns:svg="http://www.w3.org/2000/svg"
   xmlns="http://www.w3.org/2000/svg"
   xmlns:sodipodi="http://sodipodi.sourceforge.net/DTD/sodipodi-0.dtd"
   xmlns:inkscape="http://www.inkscape.org/namespaces/inkscape"
   viewBox="0 0 300 300"
   width="300"
   height="300"
   x="0"
   y="0"
   version="1.1"
   id="svg114"
   sodipodi:docname="black-watch-dress-asymmetrical-sized.svg"
   inkscape:version="0.92.4 (5da689c313, 2019-01-14)">
  <metadata
     id="metadata118">
    <rdf:RDF>
      <cc:Work
         rdf:about="">
        <dc:format>image/svg+xml</dc:format>
        <dc:type
           rdf:resource="http://purl.org/dc/dcmitype/StillImage" />
        <dc:title />
      </cc:Work>
    </rdf:RDF>
  </metadata>
  <sodipodi:namedview
     pagecolor="#ffffff"
     bordercolor="#666666"
     borderopacity="1"
     objecttolerance="10"
     gridtolerance="10"
     guidetolerance="10"
     inkscape:pageopacity="0"
     inkscape:pageshadow="2"
     inkscape:window-width="1346"
     inkscape:window-height="1018"
     id="namedview116"
     showgrid="false"
     inkscape:zoom="1"
     inkscape:cx="-79"
     inkscape:cy="249.99999"
     inkscape:window-x="3723"
     inkscape:window-y="195"
     inkscape:window-maximized="0"
     inkscape:current-layer="svg114" />
  <defs
     id="defs10">
    <pattern
       id="pattern"
       x="0"
       y="0"
       width="8"
       height="8"
       patternUnits="userSpaceOnUse">
      <polygon
         points="0,4 0,8 8,0 4,0"
         fill="#ffffff"
         id="polygon2" />
      <polygon
         points="4,8 8,8 8,4"
         fill="#ffffff"
         id="polygon4" />
    </pattern>
    <mask
       id="grating"
       x="0"
       y="0"
       width="1"
       height="1">
      <rect
         x="0"
         y="0"
         width="100%"
         height="100%"
         id="rect7"
         style="fill:url(#pattern)" />
    </mask>
  </defs>
  <g
     id="horizStripes"
     transform="matrix(1,0,0,0.23734177,0,2.72e-6)">
    <rect
       style="fill:#202060"
       height="80"
       width="100%"
       x="0"
       y="0"
       id="rect12" />
    <rect
       style="fill:#101010"
       height="16"
       width="100%"
       x="0"
       y="80"
       id="rect14" />
    <rect
       style="fill:#202060"
       height="16"
       width="100%"
       x="0"
       y="96"
       id="rect16" />
    <rect
       style="fill:#101010"
       height="16"
       width="100%"
       x="0"
       y="112"
       id="rect18" />
    <rect
       style="fill:#202060"
       height="80"
       width="100%"
       x="0"
       y="128"
       id="rect20" />
    <rect
       style="fill:#101010"
       height="72"
       width="100%"
       x="0"
       y="208"
       id="rect22" />
    <rect
       style="fill:#006818"
       height="88"
       width="100%"
       x="0"
       y="280"
       id="rect24" />
    <rect
       style="fill:#101010"
       height="24"
       width="100%"
       x="0"
       y="368"
       id="rect26" />
    <rect
       style="fill:#006818"
       height="88"
       width="100%"
       x="0"
       y="392"
       id="rect28" />
    <rect
       style="fill:#101010"
       height="80"
       width="100%"
       x="0"
       y="480"
       id="rect30" />
    <rect
       style="fill:#ffffff"
       height="24"
       width="100%"
       x="0"
       y="560"
       id="rect32" />
    <rect
       style="fill:#202060"
       height="32"
       width="100%"
       x="0"
       y="584"
       id="rect34" />
    <rect
       style="fill:#ffffff"
       height="120"
       width="100%"
       x="0"
       y="616"
       id="rect36" />
    <rect
       style="fill:#202060"
       height="16"
       width="100%"
       x="0"
       y="736"
       id="rect38" />
    <rect
       style="fill:#ffffff"
       height="32"
       width="100%"
       x="0"
       y="752"
       id="rect40" />
    <rect
       style="fill:#202060"
       height="16"
       width="100%"
       x="0"
       y="784"
       id="rect42" />
    <rect
       style="fill:#ffffff"
       height="120"
       width="100%"
       x="0"
       y="800"
       id="rect44" />
    <rect
       style="fill:#202060"
       height="32"
       width="100%"
       x="0"
       y="920"
       id="rect46" />
    <rect
       style="fill:#ffffff"
       height="24"
       width="100%"
       x="0"
       y="952"
       id="rect48" />
    <rect
       style="fill:#101010"
       height="80"
       width="100%"
       x="0"
       y="976"
       id="rect50" />
    <rect
       style="fill:#202060"
       height="80"
       width="100%"
       x="0"
       y="1056"
       id="rect52" />
    <rect
       style="fill:#101010"
       height="16"
       width="100%"
       x="0"
       y="1136"
       id="rect54" />
    <rect
       style="fill:#202060"
       height="16"
       width="100%"
       x="0"
       y="1152"
       id="rect56" />
    <rect
       style="fill:#101010"
       height="16"
       width="100%"
       x="0"
       y="1168"
       id="rect58" />
    <rect
       style="fill:#202060"
       height="80"
       width="100%"
       x="0"
       y="1184"
       id="rect60" />
  </g>
  <g
     id="horizStripes-6"
     transform="matrix(0,-1,0.23734177,0,0,300)"
     style="opacity:0.5">
    <rect
       style="fill:#202060"
       height="80"
       width="100%"
       x="0"
       y="0"
       id="rect12-9" />
    <rect
       style="fill:#101010"
       height="16"
       width="100%"
       x="0"
       y="80"
       id="rect14-0" />
    <rect
       style="fill:#202060"
       height="16"
       width="100%"
       x="0"
       y="96"
       id="rect16-5" />
    <rect
       style="fill:#101010"
       height="16"
       width="100%"
       x="0"
       y="112"
       id="rect18-1" />
    <rect
       style="fill:#202060"
       height="80"
       width="100%"
       x="0"
       y="128"
       id="rect20-5" />
    <rect
       style="fill:#101010"
       height="72"
       width="100%"
       x="0"
       y="208"
       id="rect22-0" />
    <rect
       style="fill:#006818"
       height="88"
       width="100%"
       x="0"
       y="280"
       id="rect24-1" />
    <rect
       style="fill:#101010"
       height="24"
       width="100%"
       x="0"
       y="368"
       id="rect26-5" />
    <rect
       style="fill:#006818"
       height="88"
       width="100%"
       x="0"
       y="392"
       id="rect28-2" />
    <rect
       style="fill:#101010"
       height="80"
       width="100%"
       x="0"
       y="480"
       id="rect30-5" />
    <rect
       style="fill:#ffffff"
       height="24"
       width="100%"
       x="0"
       y="560"
       id="rect32-1" />
    <rect
       style="fill:#202060"
       height="32"
       width="100%"
       x="0"
       y="584"
       id="rect34-4" />
    <rect
       style="fill:#ffffff"
       height="120"
       width="100%"
       x="0"
       y="616"
       id="rect36-1" />
    <rect
       style="fill:#202060"
       height="16"
       width="100%"
       x="0"
       y="736"
       id="rect38-3" />
    <rect
       style="fill:#ffffff"
       height="32"
       width="100%"
       x="0"
       y="752"
       id="rect40-0" />
    <rect
       style="fill:#202060"
       height="16"
       width="100%"
       x="0"
       y="784"
       id="rect42-4" />
    <rect
       style="fill:#ffffff"
       height="120"
       width="100%"
       x="0"
       y="800"
       id="rect44-0" />
    <rect
       style="fill:#202060"
       height="32"
       width="100%"
       x="0"
       y="920"
       id="rect46-6" />
    <rect
       style="fill:#ffffff"
       height="24"
       width="100%"
       x="0"
       y="952"
       id="rect48-8" />
    <rect
       style="fill:#101010"
       height="80"
       width="100%"
       x="0"
       y="976"
       id="rect50-6" />
    <rect
       style="fill:#202060"
       height="80"
       width="100%"
       x="0"
       y="1056"
       id="rect52-5" />
    <rect
       style="fill:#101010"
       height="16"
       width="100%"
       x="0"
       y="1136"
       id="rect54-8" />
    <rect
       style="fill:#202060"
       height="16"
       width="100%"
       x="0"
       y="1152"
       id="rect56-9" />
    <rect
       style="fill:#101010"
       height="16"
       width="100%"
       x="0"
       y="1168"
       id="rect58-8" />
    <rect
       style="fill:#202060"
       height="80"
       width="100%"
       x="0"
       y="1184"
       id="rect60-9" />
  </g>
</svg>
