<svg viewBox="0 0 704 704" width="704" height="704" x="0" y="0" xmlns="http://www.w3.org/2000/svg"><defs><pattern id="pattern" x="0" y="0" width="8" height="8" patternUnits="userSpaceOnUse"><polygon points="0,4 0,8 8,0 4,0" fill="#ffffff"></polygon><polygon points="4,8 8,8 8,4" fill="#ffffff"></polygon></pattern><mask id="grating" x="0" y="0" width="1" height="1"><rect x="0" y="0" width="100%" height="100%" fill="url(#pattern)"></rect></mask></defs><g id="horizStripes"><rect fill="#000000" height="24" width="100%" x="0" y="0"></rect><rect fill="#2C2C80" height="72" width="100%" x="0" y="24"></rect><rect fill="#000000" height="72" width="100%" x="0" y="96"></rect><rect fill="#006818" height="72" width="100%" x="0" y="168"></rect><rect fill="#DCBC00" height="16" width="100%" x="0" y="240"></rect><rect fill="#006818" height="72" width="100%" x="0" y="256"></rect><rect fill="#000000" height="72" width="100%" x="0" y="328"></rect><rect fill="#006818" height="72" width="100%" x="0" y="400"></rect><rect fill="#DCBC00" height="16" width="100%" x="0" y="472"></rect><rect fill="#006818" height="72" width="100%" x="0" y="488"></rect><rect fill="#000000" height="72" width="100%" x="0" y="560"></rect><rect fill="#2C2C80" height="72" width="100%" x="0" y="632"></rect></g><g id="vertStripes" mask="url(#grating)"><rect fill="#000000" height="100%" width="24" x="0" y="0"></rect><rect fill="#2C2C80" height="100%" width="72" x="24" y="0"></rect><rect fill="#000000" height="100%" width="72" x="96" y="0"></rect><rect fill="#006818" height="100%" width="72" x="168" y="0"></rect><rect fill="#DCBC00" height="100%" width="16" x="240" y="0"></rect><rect fill="#006818" height="100%" width="72" x="256" y="0"></rect><rect fill="#000000" height="100%" width="72" x="328" y="0"></rect><rect fill="#006818" height="100%" width="72" x="400" y="0"></rect><rect fill="#DCBC00" height="100%" width="16" x="472" y="0"></rect><rect fill="#006818" height="100%" width="72" x="488" y="0"></rect><rect fill="#000000" height="100%" width="72" x="560" y="0"></rect><rect fill="#2C2C80" height="100%" width="72" x="632" y="0"></rect></g></svg>