<?xml version="1.0" encoding="UTF-8" standalone="no"?>
<svg
   xmlns:dc="http://purl.org/dc/elements/1.1/"
   xmlns:cc="http://creativecommons.org/ns#"
   xmlns:rdf="http://www.w3.org/1999/02/22-rdf-syntax-ns#"
   xmlns:svg="http://www.w3.org/2000/svg"
   xmlns="http://www.w3.org/2000/svg"
   xmlns:sodipodi="http://sodipodi.sourceforge.net/DTD/sodipodi-0.dtd"
   xmlns:inkscape="http://www.inkscape.org/namespaces/inkscape"
   role="img"
   width="70"
   height="70"
   version="1.1"
   id="svg74"
   sodipodi:docname="eight_dot.svg"
   inkscape:version="0.92.4 (5da689c313, 2019-01-14)">
  <metadata
     id="metadata80">
    <rdf:RDF>
      <cc:Work
         rdf:about="">
        <dc:format>image/svg+xml</dc:format>
        <dc:type
           rdf:resource="http://purl.org/dc/dcmitype/StillImage" />
        <dc:title>Sheet Music for &quot;Temporary&quot;</dc:title>
      </cc:Work>
    </rdf:RDF>
  </metadata>
  <defs
     id="defs78" />
  <sodipodi:namedview
     pagecolor="#ffffff"
     bordercolor="#666666"
     borderopacity="1"
     objecttolerance="10"
     gridtolerance="10"
     guidetolerance="10"
     inkscape:pageopacity="0"
     inkscape:pageshadow="2"
     inkscape:window-width="3200"
     inkscape:window-height="1321"
     id="namedview76"
     showgrid="true"
     inkscape:zoom="1"
     inkscape:cx="-301.09226"
     inkscape:cy="40.249997"
     inkscape:window-x="2391"
     inkscape:window-y="-9"
     inkscape:window-maximized="1"
     inkscape:current-layer="svg74">
    <inkscape:grid
       type="xygrid"
       id="grid1329"
       spacingx="70"
       spacingy="70" />
  </sodipodi:namedview>
  <title
     id="title2">Sheet Music for &quot;Temporary&quot;</title>
  <g
     id="g957"
     transform="translate(328,140)">
    <rect
       y="-140"
       x="-328"
       height="70"
       width="70"
       id="rect1148"
       style="opacity:1;fill:none;fill-opacity:1;stroke:none;stroke-width:113.38582611;stroke-linecap:round;stroke-linejoin:miter;stroke-miterlimit:4;stroke-dasharray:none;stroke-dashoffset:0;stroke-opacity:1;paint-order:normal" />
    <g
       transform="translate(-135.15405,-332.84601)"
       id="g1386">
      <path
         style="fill:#000000;stroke-width:1.4641"
         d="m -160.63506,219.00781 c 0.35139,-0.1757 0.79062,-0.0878 1.01023,0.21962 0.0879,0.0878 0.30746,0.52707 0.571,0.9663 1.22985,2.59146 1.84477,4.91938 1.93261,7.46691 0.0439,1.88869 -0.30746,3.46992 -1.18592,5.31466 -0.87846,1.80084 -1.84476,3.11853 -4.69976,6.41276 -1.97653,2.24007 -2.72322,3.20637 -3.51384,4.34837 -0.92238,1.36162 -1.62515,2.81107 -2.02046,4.08484 -0.21961,0.79062 -0.3953,1.97654 -0.3953,2.63538 v 0.21962 h -0.30746 -0.30747 v -5.49038 -5.49037 h 0.30747 0.30746 l 0.70276,-0.43923 c 2.67931,-1.62515 4.568,-3.07461 6.1053,-4.568 1.142,-1.18592 1.93261,-2.24007 2.50361,-3.38207 0.65885,-1.36161 0.87846,-2.54753 0.74669,-4.2166 -0.17569,-2.284 -0.92238,-4.65584 -2.15222,-6.85199 -0.1757,-0.30746 -0.21962,-0.48316 -0.0879,-0.74669 0.0879,-0.21962 0.21962,-0.35139 0.48315,-0.48313 z"
         id="path1029-0-6"
         inkscape:connector-curvature="0" />
      <path
         style="fill:#000000;stroke-width:1.4641"
         d="m -160.67898,205.03298 c 0.52708,-0.0439 1.75692,0 2.24007,0.0878 1.713,0.35137 2.76715,1.22985 3.16246,2.67931 0.0879,0.26354 0.0879,0.43923 0.0879,0.96629 0,0.65886 0,0.92238 -0.21962,1.58123 -0.96631,2.98678 -4.48015,5.75392 -8.08183,6.41275 -0.79062,0.13177 -2.10831,0.13177 -2.6793,0.0439 -1.80085,-0.39531 -2.89892,-1.27377 -3.29423,-2.72323 -0.0879,-0.26355 -0.0879,-0.43923 -0.0879,-0.9663 0,-0.65885 0,-0.92237 0.21962,-1.58122 0.35138,-1.14201 1.09807,-2.24009 2.1083,-3.2503 1.75692,-1.75693 4.17269,-2.94286 6.54453,-3.2503 z"
         id="path1027-3-1"
         inkscape:connector-curvature="0" />
      <path
         style="fill:#000000;stroke-width:1.4641"
         d="m -169.55143,250.67627 v -37.82258 h 1.4641 v 37.82258 z"
         id="path62-2-0"
         inkscape:connector-curvature="0" />
      <path
         inkscape:connector-curvature="0"
         d="m -149.259,208.28328 c 0.13177,-0.0439 0.39531,-0.0879 0.571,-0.0879 1.40554,0 2.54753,1.14202 2.54753,2.50362 0,1.40553 -1.14199,2.54753 -2.50361,2.54753 -1.40553,0 -2.54753,-1.142 -2.54753,-2.50361 0,-1.142 0.79061,-2.19615 1.93261,-2.45967 z"
         id="path1074-5"
         style="stroke-width:1.4641" />
    </g>
  </g>
</svg>
