<?xml version="1.0" encoding="UTF-8" standalone="no"?>
<svg
   xmlns:dc="http://purl.org/dc/elements/1.1/"
   xmlns:cc="http://creativecommons.org/ns#"
   xmlns:rdf="http://www.w3.org/1999/02/22-rdf-syntax-ns#"
   xmlns:svg="http://www.w3.org/2000/svg"
   xmlns="http://www.w3.org/2000/svg"
   xmlns:sodipodi="http://sodipodi.sourceforge.net/DTD/sodipodi-0.dtd"
   xmlns:inkscape="http://www.inkscape.org/namespaces/inkscape"
   role="img"
   width="70"
   height="70"
   version="1.1"
   id="svg74"
   sodipodi:docname="half_dot.svg"
   inkscape:version="0.92.4 (5da689c313, 2019-01-14)">
  <metadata
     id="metadata80">
    <rdf:RDF>
      <cc:Work
         rdf:about="">
        <dc:format>image/svg+xml</dc:format>
        <dc:type
           rdf:resource="http://purl.org/dc/dcmitype/StillImage" />
        <dc:title>Sheet Music for &quot;Temporary&quot;</dc:title>
      </cc:Work>
    </rdf:RDF>
  </metadata>
  <defs
     id="defs78" />
  <sodipodi:namedview
     pagecolor="#ffffff"
     bordercolor="#666666"
     borderopacity="1"
     objecttolerance="10"
     gridtolerance="10"
     guidetolerance="10"
     inkscape:pageopacity="0"
     inkscape:pageshadow="2"
     inkscape:window-width="3200"
     inkscape:window-height="1321"
     id="namedview76"
     showgrid="true"
     inkscape:zoom="1"
     inkscape:cx="-301.09226"
     inkscape:cy="40.249997"
     inkscape:window-x="2391"
     inkscape:window-y="-9"
     inkscape:window-maximized="1"
     inkscape:current-layer="svg74">
    <inkscape:grid
       type="xygrid"
       id="grid1329"
       spacingx="70"
       spacingy="70" />
  </sodipodi:namedview>
  <title
     id="title2">Sheet Music for &quot;Temporary&quot;</title>
  <g
     id="g945"
     transform="translate(210,70)">
    <rect
       y="-70"
       x="-210"
       height="70"
       width="70"
       id="rect1148"
       style="opacity:1;fill:none;fill-opacity:1;stroke:none;stroke-width:113.38582611;stroke-linecap:round;stroke-linejoin:miter;stroke-miterlimit:4;stroke-dasharray:none;stroke-dashoffset:0;stroke-opacity:1;paint-order:normal" />
    <g
       transform="translate(217.10199,-262.84602)"
       id="g1398">
      <path
         d="m -382.90744,208.51623 c 0.13177,-0.0439 0.39531,-0.0879 0.571,-0.0879 1.40553,0 2.54753,1.142 2.54753,2.50361 0,1.40554 -1.142,2.54754 -2.50361,2.54754 -1.40554,0 -2.54753,-1.142 -2.54753,-2.50361 0,-1.142 0.79061,-2.19615 1.93261,-2.45969 z m -10.61473,-3.46992 c 0.0879,-0.0439 0.39531,-0.0439 0.70277,-0.0439 1.53731,0 2.50361,0.35139 3.07461,1.18593 0.61492,0.87846 0.65885,1.97653 0.26354,3.51384 -0.61492,2.32792 -1.66907,3.99699 -3.16246,4.9633 -2.06438,1.36161 -4.65583,2.1083 -7.90614,2.24007 -1.71299,0.0439 -2.76715,-0.30746 -3.33814,-1.18592 -0.61493,-0.87846 -0.65885,-1.97654 -0.26354,-3.51384 0.61492,-2.32792 1.66907,-3.99699 3.16245,-4.9633 0.92239,-0.61492 1.80085,-1.05415 2.89892,-1.40554 1.31769,-0.43923 2.41577,-0.61492 4.56799,-0.79061 z m 1.88869,1.27377 c -0.3953,-0.13177 -0.92238,-0.17569 -1.31769,-0.0439 -1.05415,0.35139 -2.24007,1.01023 -4.7876,2.63538 -3.426,2.19615 -4.83153,3.29423 -5.22684,4.08484 -0.52708,1.05416 -0.0878,2.19615 0.9663,2.59146 0.35139,0.17569 1.01023,0.13177 1.44946,0 1.22985,-0.43923 2.81108,-1.36161 6.06138,-3.46992 2.37184,-1.58122 3.46991,-2.50361 3.8213,-3.20638 0.52707,-1.05415 0.0878,-2.19615 -0.96631,-2.59145 z m -12.78159,44.36955 v -37.82258 h 1.4641 v 37.82258 z"
         class=""
         id="path42-0"
         inkscape:connector-curvature="0"
         style="fill:#000000;stroke:none;stroke-width:1.4641" />
    </g>
  </g>
</svg>
