<?xml version="1.0" encoding="UTF-8" standalone="no"?>
<svg
   xmlns:dc="http://purl.org/dc/elements/1.1/"
   xmlns:cc="http://creativecommons.org/ns#"
   xmlns:rdf="http://www.w3.org/1999/02/22-rdf-syntax-ns#"
   xmlns:svg="http://www.w3.org/2000/svg"
   xmlns="http://www.w3.org/2000/svg"
   xmlns:sodipodi="http://sodipodi.sourceforge.net/DTD/sodipodi-0.dtd"
   xmlns:inkscape="http://www.inkscape.org/namespaces/inkscape"
   role="img"
   width="70"
   height="70"
   version="1.1"
   id="svg74"
   sodipodi:docname="quarter_dot.svg"
   inkscape:version="0.92.4 (5da689c313, 2019-01-14)">
  <metadata
     id="metadata80">
    <rdf:RDF>
      <cc:Work
         rdf:about="">
        <dc:format>image/svg+xml</dc:format>
        <dc:type
           rdf:resource="http://purl.org/dc/dcmitype/StillImage" />
        <dc:title>Sheet Music for &quot;Temporary&quot;</dc:title>
      </cc:Work>
    </rdf:RDF>
  </metadata>
  <defs
     id="defs78" />
  <sodipodi:namedview
     pagecolor="#ffffff"
     bordercolor="#666666"
     borderopacity="1"
     objecttolerance="10"
     gridtolerance="10"
     guidetolerance="10"
     inkscape:pageopacity="0"
     inkscape:pageshadow="2"
     inkscape:window-width="3200"
     inkscape:window-height="1321"
     id="namedview76"
     showgrid="true"
     inkscape:zoom="1"
     inkscape:cx="-301.09226"
     inkscape:cy="40.249997"
     inkscape:window-x="2391"
     inkscape:window-y="-9"
     inkscape:window-maximized="1"
     inkscape:current-layer="svg74">
    <inkscape:grid
       type="xygrid"
       id="grid1329"
       spacingx="70"
       spacingy="70" />
  </sodipodi:namedview>
  <title
     id="title2">Sheet Music for &quot;Temporary&quot;</title>
  <g
     id="g945"
     transform="translate(-280,59)">
    <rect
       y="-59"
       x="280"
       height="70"
       width="70"
       id="rect1148"
       style="opacity:1;fill:none;fill-opacity:1;stroke:none;stroke-width:113.38582611;stroke-linecap:round;stroke-linejoin:miter;stroke-miterlimit:4;stroke-dasharray:none;stroke-dashoffset:0;stroke-opacity:1;paint-order:normal" />
    <g
       transform="translate(589.97397,-251.84601)"
       id="g1392">
      <path
         d="m -266.18937,208.50288 c 0.13176,-0.0439 0.3953,-0.0879 0.57099,-0.0879 1.40554,0 2.54754,1.142 2.54754,2.50361 0,1.40554 -1.142,2.54754 -2.50361,2.54754 -1.40554,0 -2.54754,-1.142 -2.54754,-2.50361 0,-1.142 0.79062,-2.19615 1.93262,-2.45969 z m -11.77137,-3.46992 c 0.52708,-0.0439 1.75692,0 2.24007,0.0879 1.713,0.35138 2.76715,1.22984 3.16246,2.6793 0.0878,0.26354 0.0878,0.43923 0.0878,0.96631 0,0.65884 0,0.92238 -0.21962,1.58122 -0.9663,2.98677 -4.48014,5.75392 -8.08183,6.41276 -0.79061,0.13177 -2.1083,0.13177 -2.6793,0.0439 -1.80085,-0.3953 -2.89892,-1.27376 -3.29423,-2.72322 -0.0878,-0.26354 -0.0878,-0.43923 -0.0878,-0.96631 0,-0.65884 0,-0.92238 0.21961,-1.58123 0.35138,-1.14199 1.09808,-2.24007 2.1083,-3.2503 1.75692,-1.75692 4.17269,-2.94284 6.54453,-3.2503 z m -8.91637,45.64332 V 212.8537 h 1.4641 v 37.82258 z"
         class=""
         id="path50-5"
         inkscape:connector-curvature="0"
         style="fill:#000000;stroke:none;stroke-width:1.4641" />
    </g>
  </g>
</svg>
