<?xml version="1.0" encoding="UTF-8" standalone="no"?>
<svg
   xmlns:dc="http://purl.org/dc/elements/1.1/"
   xmlns:cc="http://creativecommons.org/ns#"
   xmlns:rdf="http://www.w3.org/1999/02/22-rdf-syntax-ns#"
   xmlns:svg="http://www.w3.org/2000/svg"
   xmlns="http://www.w3.org/2000/svg"
   xmlns:sodipodi="http://sodipodi.sourceforge.net/DTD/sodipodi-0.dtd"
   xmlns:inkscape="http://www.inkscape.org/namespaces/inkscape"
   role="img"
   width="70"
   height="70"
   version="1.1"
   id="svg74"
   sodipodi:docname="sixteen_dot.svg"
   inkscape:version="0.92.4 (5da689c313, 2019-01-14)">
  <metadata
     id="metadata80">
    <rdf:RDF>
      <cc:Work
         rdf:about="">
        <dc:format>image/svg+xml</dc:format>
        <dc:type
           rdf:resource="http://purl.org/dc/dcmitype/StillImage" />
        <dc:title>Sheet Music for &quot;Temporary&quot;</dc:title>
      </cc:Work>
    </rdf:RDF>
  </metadata>
  <defs
     id="defs78" />
  <sodipodi:namedview
     pagecolor="#ffffff"
     bordercolor="#666666"
     borderopacity="1"
     objecttolerance="10"
     gridtolerance="10"
     guidetolerance="10"
     inkscape:pageopacity="0"
     inkscape:pageshadow="2"
     inkscape:window-width="3200"
     inkscape:window-height="1321"
     id="namedview76"
     showgrid="true"
     inkscape:zoom="1"
     inkscape:cx="-301.09226"
     inkscape:cy="40.249997"
     inkscape:window-x="2391"
     inkscape:window-y="-9"
     inkscape:window-maximized="1"
     inkscape:current-layer="svg74">
    <inkscape:grid
       type="xygrid"
       id="grid1329"
       spacingx="70"
       spacingy="70" />
  </sodipodi:namedview>
  <title
     id="title2">Sheet Music for &quot;Temporary&quot;</title>
  <g
     id="g957"
     transform="translate(184,114)">
    <rect
       y="-114"
       x="-184"
       height="70"
       width="70"
       id="rect1148"
       style="opacity:1;fill:none;fill-opacity:1;stroke:none;stroke-width:113.38582611;stroke-linecap:round;stroke-linejoin:miter;stroke-miterlimit:4;stroke-dasharray:none;stroke-dashoffset:0;stroke-opacity:1;paint-order:normal" />
    <g
       transform="translate(-108.28202,-306.84599)"
       id="g1375">
      <path
         inkscape:connector-curvature="0"
         style="fill:#000000;stroke:none;stroke-width:1.4641"
         d="m -31.306524,208.5034 c 0.131769,-0.0439 0.395307,-0.0878 0.570999,-0.0878 1.405536,0 2.547534,1.142 2.547534,2.50361 0,1.40553 -1.141998,2.54753 -2.503611,2.54753 -1.405536,0 -2.547534,-1.142 -2.547534,-2.50361 0,-1.142 0.790614,-2.19615 1.932612,-2.45969 z"
         id="path988-2" />
      <path
         style="fill:#000000;stroke:none;stroke-width:1.4641"
         d="m -42.31866,217.60765 c -0.100144,0.0117 -0.20143,0.0389 -0.300257,0.0829 -0.351384,0.1757 -0.572947,0.52651 -0.529024,0.87789 0.04392,0.0879 0.132355,0.39702 0.220186,0.66056 0.307461,0.83454 0.351721,1.31769 0.351721,2.19615 0,0.571 10e-4,0.87744 -0.0429,1.14097 -0.527076,2.45969 -2.46083,4.78773 -5.930747,7.07172 -1.098075,0.70277 -2.063693,1.31872 -3.688844,2.15326 l -0.394633,0.21733 v -1.62425 -1.66998 h -0.308823 -0.305982 v 10.98075 10.98075 h 0.305982 0.308823 v -0.21733 c 0,-1.09807 0.351618,-2.50475 0.96654,-3.7346 0.790614,-1.5373 1.756583,-2.766 4.040579,-5.05 2.942841,-3.03069 3.557763,-3.69044 4.3923,-4.96421 1.229844,-1.71299 1.756569,-3.25202 1.844415,-5.05287 0.04392,-1.5373 -0.306656,-3.33642 -1.009424,-4.8298 l -0.134404,-0.26308 0.265939,-0.39749 c 0.307461,-0.52708 0.790848,-1.44706 0.96654,-1.93021 0.175692,-0.48316 0.306773,-1.14393 0.394619,-1.62709 0.08785,-0.43923 0.08785,-1.93033 0,-2.41348 -0.175692,-1.01023 -0.440943,-2.06518 -0.660558,-2.2848 -0.164711,-0.2306 -0.45147,-0.33812 -0.752064,-0.30311 z m -1.444085,10.53752 c 0,0 0.132354,0.26261 0.220186,0.52615 1.010229,3.16246 0.263991,5.75437 -2.459235,8.52152 -0.746691,0.70277 -1.228819,1.14064 -2.239048,1.88733 -1.054152,0.79061 -2.767603,1.88879 -4.129216,2.6794 l -0.263084,0.13162 v -1.00942 c 0.04392,-0.65884 0.04187,-1.18627 0.0858,-1.44981 0.395307,-2.15223 1.494524,-3.95352 3.734597,-6.32537 0.263538,-0.26353 1.185115,-1.14142 2.107498,-1.97596 1.449459,-1.40554 2.768862,-2.72391 2.856708,-2.89961 0.04392,-0.0439 0.04187,-0.0858 0.0858,-0.0858 z"
         id="path992-32"
         inkscape:connector-curvature="0" />
      <path
         style="fill:#000000;stroke:none;stroke-width:1.4641"
         d="m -44.375501,205.03349 c 0.527076,-0.0439 1.75692,0 2.240073,0.0878 1.712997,0.35139 2.767149,1.22985 3.162456,2.67931 0.08785,0.26353 0.08785,0.43923 0.08785,0.9663 0,0.65885 0,0.92238 -0.219615,1.58123 -0.966306,2.98676 -4.480146,5.75391 -8.081832,6.41276 -0.790614,0.13177 -2.108304,0.13177 -2.679303,0.0439 -1.800843,-0.39531 -2.898918,-1.27377 -3.294225,-2.72323 -0.08785,-0.26353 -0.08785,-0.43923 -0.08785,-0.9663 0,-0.65885 0,-0.92238 0.219615,-1.58123 0.351384,-1.142 1.098075,-2.24007 2.108304,-3.2503 1.75692,-1.75692 4.172685,-2.94284 6.544527,-3.2503 z"
         id="path986-0"
         inkscape:connector-curvature="0" />
      <path
         style="fill:#000000;stroke:none;stroke-width:1.4641"
         d="m -53.247947,250.67572 v -37.82258 h 1.4641 v 37.82258 z"
         id="path66-49"
         inkscape:connector-curvature="0" />
    </g>
  </g>
</svg>
