<?xml version="1.0" encoding="UTF-8" standalone="no"?>
<svg
   xmlns:dc="http://purl.org/dc/elements/1.1/"
   xmlns:cc="http://creativecommons.org/ns#"
   xmlns:rdf="http://www.w3.org/1999/02/22-rdf-syntax-ns#"
   xmlns:svg="http://www.w3.org/2000/svg"
   xmlns="http://www.w3.org/2000/svg"
   xmlns:sodipodi="http://sodipodi.sourceforge.net/DTD/sodipodi-0.dtd"
   xmlns:inkscape="http://www.inkscape.org/namespaces/inkscape"
   role="img"
   width="70"
   height="70"
   version="1.1"
   id="svg74"
   sodipodi:docname="whole.svg"
   inkscape:version="0.92.4 (5da689c313, 2019-01-14)">
  <metadata
     id="metadata80">
    <rdf:RDF>
      <cc:Work
         rdf:about="">
        <dc:format>image/svg+xml</dc:format>
        <dc:type
           rdf:resource="http://purl.org/dc/dcmitype/StillImage" />
        <dc:title>Sheet Music for &quot;Temporary&quot;</dc:title>
      </cc:Work>
    </rdf:RDF>
  </metadata>
  <defs
     id="defs78" />
  <sodipodi:namedview
     pagecolor="#ffffff"
     bordercolor="#666666"
     borderopacity="1"
     objecttolerance="10"
     gridtolerance="10"
     guidetolerance="10"
     inkscape:pageopacity="0"
     inkscape:pageshadow="2"
     inkscape:window-width="1338"
     inkscape:window-height="1044"
     id="namedview76"
     showgrid="true"
     inkscape:zoom="4.1618285"
     inkscape:cx="35.000004"
     inkscape:cy="35.000003"
     inkscape:window-x="2432"
     inkscape:window-y="32"
     inkscape:window-maximized="0"
     inkscape:current-layer="svg74">
    <inkscape:grid
       type="xygrid"
       id="grid1329"
       spacingx="70"
       spacingy="70" />
  </sodipodi:namedview>
  <title
     id="title2">Sheet Music for &quot;Temporary&quot;</title>
  <g
     id="g923"
     transform="translate(495.66602,-6.8460236)">
    <rect
       y="6.8460207"
       x="-495.66602"
       height="70"
       width="70"
       id="rect1148"
       style="opacity:1;fill:none;fill-opacity:1;stroke:none;stroke-width:113.38582611;stroke-linecap:round;stroke-linejoin:miter;stroke-miterlimit:4;stroke-dasharray:none;stroke-dashoffset:0;stroke-opacity:1;paint-order:normal" />
    <path
       style="fill:#000000;stroke:none;stroke-width:1.4641"
       inkscape:connector-curvature="0"
       id="path38-6"
       class=""
       d="m -462.13744,35.93648 c 0.7467,-0.0439 2.94285,0 3.68954,0.0439 2.06438,0.26354 3.86522,0.74669 5.44645,1.58123 1.75692,0.92238 2.85499,2.06438 3.20638,3.38207 0.13177,0.48315 0.13177,1.31769 0,1.80084 -0.35139,1.31769 -1.44946,2.45969 -3.20638,3.38207 -1.58123,0.83454 -3.33815,1.31769 -5.49038,1.58123 -0.9663,0.0879 -3.38207,0.0879 -4.34837,0 -2.15223,-0.26354 -3.90915,-0.74669 -5.49038,-1.58123 -1.75692,-0.92238 -2.85499,-2.06438 -3.20638,-3.38207 -0.13177,-0.48315 -0.13177,-1.31769 0,-1.80084 0.35139,-1.31769 1.44946,-2.45969 3.20638,-3.38207 1.75692,-0.92238 3.8213,-1.44946 6.19314,-1.62515 z m 0.83454,0.9663 c -1.27377,-0.21961 -2.24007,0 -2.98676,0.7467 -0.21962,0.21961 -0.35139,0.3953 -0.48316,0.70276 -0.35138,0.74669 -0.52707,1.58123 -0.48315,2.59146 0.0439,1.01023 0.26354,1.84477 0.61492,2.59146 0.87846,1.71299 2.54754,2.89892 4.65584,3.2503 1.62515,0.30746 2.855,-0.21962 3.426,-1.44946 0.35138,-0.74669 0.52707,-1.58123 0.48315,-2.63538 -0.0879,-1.62515 -0.65885,-2.98676 -1.713,-4.04092 -0.92238,-0.92238 -2.15223,-1.5373 -3.51384,-1.75692 z" />
  </g>
</svg>
